<svg fill="#000000" xmlns="http://www.w3.org/2000/svg" viewBox="0 0 64 64" width="50px" height="50px"><path d="M 13 6 C 9.140625 6 6 9.140625 6 13 L 6 51 C 6 54.859375 9.140625 58 13 58 L 51 58 C 54.859375 58 58 54.859375 58 51 L 58 13 C 58 9.140625 54.859375 6 51 6 Z M 13 8 L 51 8 C 53.761719 8 56 10.238281 56 13 L 56 51 C 56 53.761719 53.761719 56 51 56 L 39.898438 56 L 39.898438 42.972656 L 45.808594 42.972656 C 46.296875 42.972656 46.714844 42.621094 46.796875 42.136719 L 47.933594 35.183594 C 48.03125 34.574219 47.5625 34.019531 46.945313 34.019531 L 39.898438 34.019531 L 39.898438 32.402344 C 39.898438 30.503906 40.292969 29.65625 42.625 29.65625 L 47.277344 29.65625 C 47.828125 29.65625 48.277344 29.210938 48.277344 28.65625 L 48.277344 21.414063 C 48.277344 20.898438 47.890625 20.472656 47.378906 20.421875 C 45.890625 20.273438 42.941406 20 41.558594 20 C 35.121094 20 30.964844 24.429688 30.964844 31.285156 L 30.964844 34.019531 L 25 34.019531 C 24.449219 34.019531 24 34.46875 24 35.019531 L 24 41.972656 C 24 42.527344 24.449219 42.972656 25 42.972656 L 30.960938 42.972656 L 30.960938 56 L 13 56 C 10.238281 56 8 53.761719 8 51 L 8 13 C 8 10.238281 10.238281 8 13 8 Z M 12 12 C 11.445313 12 11 12.449219 11 13 L 11 15 C 11 15.550781 11.445313 16 12 16 C 12.554688 16 13 15.550781 13 15 L 13 13 C 13 12.449219 12.554688 12 12 12 Z M 17 12 C 16.445313 12 16 12.449219 16 13 L 16 15 C 16 15.550781 16.445313 16 17 16 C 17.554688 16 18 15.550781 18 15 L 18 13 C 18 12.449219 17.554688 12 17 12 Z M 22 12 C 21.445313 12 21 12.449219 21 13 L 21 15 C 21 15.550781 21.445313 16 22 16 C 22.554688 16 23 15.550781 23 15 L 23 13 C 23 12.449219 22.554688 12 22 12 Z M 27 12 C 26.445313 12 26 12.449219 26 13 L 26 15 C 26 15.550781 26.445313 16 27 16 C 27.554688 16 28 15.550781 28 15 L 28 13 C 28 12.449219 27.554688 12 27 12 Z M 32 12 C 31.445313 12 31 12.449219 31 13 L 31 15 C 31 15.550781 31.445313 16 32 16 C 32.554688 16 33 15.550781 33 15 L 33 13 C 33 12.449219 32.554688 12 32 12 Z M 37 12 C 36.445313 12 36 12.449219 36 13 L 36 15 C 36 15.550781 36.445313 16 37 16 C 37.554688 16 38 15.550781 38 15 L 38 13 C 38 12.449219 37.554688 12 37 12 Z M 42 12 C 41.445313 12 41 12.449219 41 13 L 41 15 C 41 15.550781 41.445313 16 42 16 C 42.554688 16 43 15.550781 43 15 L 43 13 C 43 12.449219 42.554688 12 42 12 Z M 47 12 C 46.445313 12 46 12.449219 46 13 L 46 15 C 46 15.550781 46.445313 16 47 16 C 47.554688 16 48 15.550781 48 15 L 48 13 C 48 12.449219 47.554688 12 47 12 Z M 52 12 C 51.445313 12 51 12.449219 51 13 L 51 15 C 51 15.550781 51.445313 16 52 16 C 52.554688 16 53 15.550781 53 15 L 53 13 C 53 12.449219 52.554688 12 52 12 Z M 41.558594 22 C 43.089844 22 44.671875 22.089844 46.277344 22.269531 L 46.277344 27.65625 L 42.628906 27.65625 C 38.390625 27.65625 37.902344 30.363281 37.902344 32.402344 L 37.902344 36.019531 L 45.769531 36.019531 L 44.957031 40.972656 L 37.898438 40.972656 L 37.898438 56 L 32.960938 56 L 32.960938 40.972656 L 26 40.972656 L 26 36.019531 L 32.964844 36.019531 L 32.964844 31.285156 C 32.964844 25.472656 36.175781 22 41.558594 22 Z"/></svg>