<svg height="511pt" viewBox="0 0 511.99945 511" width="511pt" xmlns="http://www.w3.org/2000/svg"><path d="m511.921875 492.425781c0 11.046875-8.953125 19.996094-20 19.996094h-102.984375c-11.042969 0-19.996094-8.949219-19.996094-19.996094 0-11.042969 8.953125-19.996093 19.996094-19.996093h102.984375c11.046875 0 20 8.953124 20 19.996093zm-388.941406-19.996093h-102.984375c-11.042969 0-19.996094 8.953124-19.996094 19.996093 0 11.046875 8.953125 19.996094 19.996094 19.996094h102.984375c11.042969 0 19.996093-8.949219 19.996093-19.996094 0-11.042969-8.953124-19.996093-19.996093-19.996093zm184.972656 0h-102.984375c-11.046875 0-19.996094 8.953124-19.996094 19.996093 0 11.046875 8.949219 19.996094 19.996094 19.996094h102.984375c11.042969 0 19.996094-8.949219 19.996094-19.996094 0-11.042969-8.953125-19.996093-19.996094-19.996093zm183.96875-68.988282h-102.984375c-11.042969 0-19.996094 8.953125-19.996094 19.996094s8.953125 19.996094 19.996094 19.996094h102.984375c11.046875 0 20-8.953125 20-19.996094s-8.953125-19.996094-20-19.996094zm-368.941406 0h-102.984375c-11.042969 0-19.996094 8.953125-19.996094 19.996094s8.953125 19.996094 19.996094 19.996094h102.984375c11.042969 0 19.996093-8.953125 19.996093-19.996094s-8.953124-19.996094-19.996093-19.996094zm184.972656 0h-102.984375c-11.046875 0-19.996094 8.953125-19.996094 19.996094s8.949219 19.996094 19.996094 19.996094h102.984375c11.042969 0 19.996094-8.953125 19.996094-19.996094s-8.953125-19.996094-19.996094-19.996094zm183.96875-69.988281h-102.984375c-11.042969 0-19.996094 8.949219-19.996094 19.996094 0 11.042969 8.953125 19.996093 19.996094 19.996093h102.984375c11.046875 0 20-8.953124 20-19.996093 0-11.046875-8.953125-19.996094-20-19.996094zm-368.941406 0h-102.984375c-11.042969 0-19.996094 8.949219-19.996094 19.996094 0 11.042969 8.953125 19.996093 19.996094 19.996093h102.984375c11.042969 0 19.996093-8.953124 19.996093-19.996093 0-11.046875-8.953124-19.996094-19.996093-19.996094zm184.972656 0h-102.984375c-11.046875 0-19.996094 8.949219-19.996094 19.996094 0 11.042969 8.949219 19.996093 19.996094 19.996093h102.984375c11.042969 0 19.996094-8.953124 19.996094-19.996093 0-11.046875-8.953125-19.996094-19.996094-19.996094zm-184.972656-69.992187h-102.984375c-11.042969 0-19.996094 8.953124-19.996094 20 0 11.042968 8.953125 19.996093 19.996094 19.996093h102.984375c11.042969 0 19.996093-8.953125 19.996093-19.996093 0-11.046876-8.953124-20-19.996093-20zm184.972656 0h-102.984375c-11.046875 0-19.996094 8.953124-19.996094 20 0 11.042968 8.949219 19.996093 19.996094 19.996093h102.984375c11.042969 0 19.996094-8.953125 19.996094-19.996093 0-11.046876-8.953125-20-19.996094-20zm0-69.988282h-102.984375c-11.046875 0-19.996094 8.953125-19.996094 19.996094 0 11.046875 8.949219 20 19.996094 20h102.984375c11.042969 0 19.996094-8.953125 19.996094-20 0-11.042969-8.953125-19.996094-19.996094-19.996094zm0-68.988281h-102.984375c-11.046875 0-19.996094 8.953125-19.996094 19.996094s8.949219 19.996093 19.996094 19.996093h102.984375c11.042969 0 19.996094-8.953124 19.996094-19.996093s-8.953125-19.996094-19.996094-19.996094zm0-70.988281h-102.984375c-11.046875 0-19.996094 8.953125-19.996094 19.996094 0 11.042968 8.949219 19.996093 19.996094 19.996093h102.984375c11.042969 0 19.996094-8.953125 19.996094-19.996093 0-11.042969-8.953125-19.996094-19.996094-19.996094zm101.984375 134.976562c23.742188 0 42.992188-19.246094 42.992188-42.992187 0-2.003907-.148438-3.976563-.414063-5.910157.269531-1.308593.414063-2.667968.414063-4.058593v-82.992188c0-2.308593 1.433593-4.359375 3.523437-5.199219 16.910156-.933593 30.105469-3.449218 42.53125-8.082031 10.347656-3.859375 15.609375-15.378906 11.75-25.726562-3.863281-10.347657-15.375-15.601563-25.726563-11.746094-5.992187 2.234375-15.113281 4.902344-32.597656 5.71875-1.050781.046875-2.09375.179687-3.125.390625-21.0625 4.359375-36.351562 23.136719-36.351562 44.644531v50.085938c-.988282-.070313-1.988282-.117188-2.996094-.117188-23.746094 0-42.996094 19.25-42.996094 42.992188 0 23.746093 19.25 42.992187 42.996094 42.992187zm0 0"/></svg>